<?xml version="1.0" standalone="no"?>
<!DOCTYPE svg PUBLIC "-//W3C//DTD SVG 1.1//EN" "http://www.w3.org/Graphics/SVG/1.1/DTD/svg11.dtd" >
<svg xmlns="http://www.w3.org/2000/svg" xmlns:xlink="http://www.w3.org/1999/xlink" version="1.1">
<metadata></metadata>
<defs>
<font id="pf_ronda_sevenregular" horiz-adv-x="1536" >
<font-face units-per-em="2048" ascent="1638" descent="-410" />
<missing-glyph horiz-adv-x="768" />
<glyph horiz-adv-x="0" />
<glyph horiz-adv-x="682" />
<glyph unicode=" "  horiz-adv-x="768" />
<glyph unicode="&#x09;" horiz-adv-x="768" />
<glyph unicode="&#xa0;" horiz-adv-x="768" />
<glyph unicode="!" horiz-adv-x="768" d="M256 0v256h256v-256h-256zM256 512v1280h256v-1280h-256z" />
<glyph unicode="&#x22;" horiz-adv-x="1024" d="M0 1280v512h256v-512h-256zM512 1280v512h256v-512h-256z" />
<glyph unicode="#" d="M0 510v258h256v254h-256v258h256v512h256v-512h256v512h256v-512h256v-258h-256v-254h256v-258h-256v-510h-256v510h-256v-510h-256v510h-256zM256 512h256v254h-51v-203h-205v-51zM256 1024h256v254h-51v-203h-205v-51zM512 768h256v254h-256v-254zM768 512h256v254h-51 v-203h-205v-51zM768 1024h256v254h-51v-203h-205v-51z" />
<glyph unicode="$" d="M0 256v256h256v-256h256v510h-256v156h-102v102h-154v512h154v102h102v154h256v256h256v-256h256v-154h102v-102h154v-256h-256v254h-256v-510h256v-154h102v-102h154v-512h-154v-102h-102v-156h-256v-254h-256v254h-256v156h-102v102h-154zM256 1024h256v510h-256v-510z M512 0h256v254h-51v-203h-205v-51zM512 768h256v254h-51v-203h-205v-51zM512 1536h256v254h-51v-203h-205v-51zM768 256h256v510h-256v-510z" />
<glyph unicode="%" horiz-adv-x="2048" d="M0 0v256h256v256h256v256h256v256h256v256h256v256h256v256h256v-258h-256v-256h-256v-256h-256v-256h-256v-256h-256v-256h-256v-254h-256zM0 1280v256h154v102h102v154h256v-154h102v-102h154v-256h-154v-102h-102v-154h-256v154h-102v102h-154zM256 1280h256v256h-256 v-256zM1024 256v256h154v102h102v154h256v-154h102v-102h154v-256h-154v-102h-102v-154h-256v154h-102v102h-154zM1280 256h256v256h-256v-256z" />
<glyph unicode="&#x26;" d="M0 256v512h256v154h-102v102h-154v512h154v102h102v154h512v-154h102v-102h154v-256h-154v-102h-102v-156h-256v-254h256v-154h102v-102h154v512h256v-256h-51v-205h-203v-307h254v-256h-256v256h-154v-102h-102v-154h-512v154h-102v102h-154zM256 256h512v256h-256v254 h-256v-510zM256 1024h256v256h256v256h-512v-512z" />
<glyph unicode="'" horiz-adv-x="512" d="M0 1280v512h256v-512h-256z" />
<glyph unicode="(" horiz-adv-x="1024" d="M0 512v768h51v205h205v307h256v256h256v-258h-256v-254h-154v-102h-102v-1076h102v-102h154v-256h256v-256h-256v254h-256v309h-205v205h-51z" />
<glyph unicode=")" horiz-adv-x="1024" d="M0 0h256v256h154v102h102v1076h-102v102h-154v254h-256v258h256v-256h256v-307h205v-205h51v-768h-51v-205h-205v-309h-256v-254h-256v256z" />
<glyph unicode="*" d="M0 768v256h256v254h-256v258h256v-256h256v512h256v-512h256v256h256v-258h-256v-254h256v-256h-256v254h-256v-510h-256v510h-256v-254h-256zM512 1024h256v254h-51v-203h-205v-51z" />
<glyph unicode="+" d="M0 766v258h512v512h256v-512h512v-258h-512v-510h-256v510h-512zM512 768h256v254h-51v-203h-205v-51z" />
<glyph unicode="," horiz-adv-x="768" d="M51 -256h205v512h256v-512h-154v-102h-102v-103h-205v205z" />
<glyph unicode="-" horiz-adv-x="1024" d="M0 512v256h768v-256h-768z" />
<glyph unicode="." horiz-adv-x="768" d="M256 0v256h256v-256h-256z" />
<glyph unicode="/" horiz-adv-x="1280" d="M0 0h51v205h205v307h51v205h205v307h154v102h102v410h154v102h102v410h256v-256h-51v-205h-205v-307h-51v-205h-205v-307h-154v-102h-102v-410h-154v-102h-102v-410h-256v256z" />
<glyph unicode="0" d="M0 256v1280h154v102h102v154h768v-154h102v-102h154v-1280h-154v-102h-102v-154h-768v154h-102v102h-154zM256 256h768v1280h-768v-1280z" />
<glyph unicode="1" horiz-adv-x="768" d="M0 1536v256h512v-1792h-256v1536h-256z" />
<glyph unicode="2" d="M0 0v256h256v256h256v256h256v256h256v512h-768v-256h-256v256h154v102h102v154h768v-154h102v-102h154v-512h-154v-102h-102v-156h-256v-256h-256v-254h768v-256h-1280z" />
<glyph unicode="3" d="M0 256v256h256v-256h768v510h-512v156h-102v102h614v512h-768v-256h-256v256h154v102h102v154h768v-154h102v-102h154v-512h-154v-102h-102v-154h256v-512h-154v-102h-102v-154h-768v154h-102v102h-154z" />
<glyph unicode="4" d="M0 510v514h154v102h102v410h256v256h512v-1024h256v-258h-256v-510h-256v510h-768zM256 768h512v766h-256v-254h-51v-205h-205v-307zM768 512h256v254h-51v-203h-205v-51z" />
<glyph unicode="5" d="M0 256v256h256v-256h768v512h-1024v1024h1280v-256h-1024v-512h768v-154h102v-102h154v-512h-154v-102h-102v-154h-768v154h-102v102h-154z" />
<glyph unicode="6" d="M0 256v1280h154v102h102v154h768v-154h102v-102h154v-256h-256v256h-768v-512h768v-154h102v-102h154v-512h-154v-102h-102v-154h-768v154h-102v102h-154zM256 256h768v512h-768v-512z" />
<glyph unicode="7" d="M0 1536v256h1280v-256h-51v-205h-205v-307h-51v-205h-205v-307h-51v-205h-205v-307h-256v256h154v102h102v410h154v102h102v410h154v102h102v154h-1024z" />
<glyph unicode="8" d="M0 256v512h256v154h-102v102h-154v512h154v102h102v154h768v-154h102v-102h154v-512h-154v-102h-102v-154h256v-512h-154v-102h-102v-154h-768v154h-102v102h-154zM256 256h768v510h-768v-510zM256 1024h768v512h-768v-512z" />
<glyph unicode="9" d="M0 256v256h256v-256h768v512h-768v154h-102v102h-154v512h154v102h102v154h768v-154h102v-102h154v-1280h-154v-102h-102v-154h-768v154h-102v102h-154zM256 1024h768v512h-768v-512z" />
<glyph unicode=":" horiz-adv-x="768" d="M256 0v256h256v-256h-256zM256 1024v256h256v-256h-256z" />
<glyph unicode=";" horiz-adv-x="768" d="M51 -256v-205h205v103h102v102h154v512h-256v-512h-205zM256 1024v256h256v-256h-256z" />
<glyph unicode="&#x3c;" horiz-adv-x="1024" d="M0 766v258h256v256h256v256h256v-258h-256v-256h-256v-254h256v-256h256v-256h-256v254h-256v256h-256z" />
<glyph unicode="=" horiz-adv-x="1024" d="M0 512v256h768v-256h-768zM0 1024v256h768v-256h-768z" />
<glyph unicode="&#x3e;" horiz-adv-x="1024" d="M0 256v256h256v256h256v254h-256v256h-256v258h256v-256h256v-256h256v-258h-256v-256h-256v-254h-256z" />
<glyph unicode="?" d="M0 1280v256h154v102h102v154h768v-154h102v-102h154v-512h-154v-102h-102v-154h-256v-256h-256v256h154v102h102v154h256v512h-768v-256h-256zM512 0v256h256v-256h-256z" />
<glyph unicode="@" horiz-adv-x="2304" d="M0 256v1280h154v102h102v154h154v102h102v154h1024v-154h102v-102h154v-154h102v-102h154v-1280h-154v-102h-102v-154h-256v154h-102v102h-154v256h-154v-102h-102v-154h-256v154h-102v102h-154v768h154v102h102v154h768v256h-1024v-256h-256v-1280h256v-256h768v-256 h-768v154h-102v102h-154v154h-102v102h-154zM768 512h307v205h205v563h-512v-768zM1536 256h256v1278h-256v-1278z" />
<glyph unicode="A" d="M0 0v1536h154v102h102v154h768v-154h102v-102h154v-1536h-256v768h-768v-768h-256zM256 1024h768v512h-768v-512z" />
<glyph unicode="B" d="M0 0v1792h1024v-154h102v-102h154v-512h-154v-102h-102v-154h256v-512h-154v-102h-102v-154h-1024zM256 256h768v510h-768v-510zM256 1024h768v512h-768v-512z" />
<glyph unicode="C" d="M0 256v1280h154v102h102v154h768v-154h102v-102h154v-256h-256v256h-768v-1280h768v256h256v-256h-154v-102h-102v-154h-768v154h-102v102h-154z" />
<glyph unicode="D" d="M0 0v1792h1024v-154h102v-102h154v-1280h-154v-102h-102v-154h-1024zM256 256h768v1280h-768v-1280z" />
<glyph unicode="E" d="M0 0v1792h1280v-256h-1024v-512h870v-102h-102v-154h-768v-512h1024v-256h-1280z" />
<glyph unicode="F" d="M0 0v1792h1280v-256h-1024v-512h870v-102h-102v-154h-768v-768h-256z" />
<glyph unicode="G" d="M0 256v1280h154v102h102v154h768v-154h102v-102h154v-256h-256v256h-768v-1280h563v205h205v307h-256v51h-205v205h717v-1024h-256v256h-154v-102h-102v-154h-512v154h-102v102h-154z" />
<glyph unicode="H" d="M0 0v1792h256v-768h768v768h256v-1792h-256v768h-768v-768h-256z" />
<glyph unicode="I" horiz-adv-x="512" d="M0 0v1792h256v-1792h-256z" />
<glyph unicode="J" horiz-adv-x="1280" d="M0 256v256h256v-256h512v1536h256v-1536h-154v-102h-102v-154h-512v154h-102v102h-154z" />
<glyph unicode="K" d="M0 0v1792h256v-768h256v256h256v256h256v256h256v-258h-256v-256h-256v-256h-256v-254h256v-256h256v-256h256v-256h-256v254h-256v256h-256v256h-256v-766h-256z" />
<glyph unicode="L" horiz-adv-x="1280" d="M0 0v1792h256v-1536h768v-256h-1024z" />
<glyph unicode="M" horiz-adv-x="2048" d="M0 0v1792h256v-256h256v-256h256v-256h256v256h256v256h256v256h256v-1792h-256v1278h-256v-256h-256v-254h-256v254h-256v256h-256v-1278h-256z" />
<glyph unicode="N" d="M0 0v1792h256v-256h256v-307h205v-205h51v-410h102v-102h154v1280h256v-1792h-256v256h-256v307h-205v205h-51v410h-102v102h-154v-1280h-256z" />
<glyph unicode="O" d="M0 256v1280h154v102h102v154h768v-154h102v-102h154v-1280h-154v-102h-102v-154h-768v154h-102v102h-154zM256 256h768v1280h-768v-1280z" />
<glyph unicode="P" d="M0 0v1792h1024v-154h102v-102h154v-512h-154v-102h-102v-154h-768v-768h-256zM256 1024h768v512h-768v-512z" />
<glyph unicode="Q" d="M0 256v1280h154v102h102v154h768v-154h102v-102h154v-1280h-154v-102h-102v-154h256v-256h-256v154h-102v102h-666v154h-102v102h-154zM256 256h768v1280h-768v-1280z" />
<glyph unicode="R" d="M0 0v1792h1024v-154h102v-102h154v-512h-154v-102h-102v-154h-256v-256h256v-256h256v-256h-256v254h-256v256h-256v258h-256v-768h-256zM256 1024h768v512h-768v-512z" />
<glyph unicode="S" d="M0 256v256h256v-256h768v512h-768v154h-102v102h-154v512h154v102h102v154h768v-154h102v-102h154v-256h-256v256h-768v-512h768v-154h102v-102h154v-512h-154v-102h-102v-154h-768v154h-102v102h-154z" />
<glyph unicode="T" d="M0 1536v256h1280v-256h-512v-1536h-256v1536h-512z" />
<glyph unicode="U" d="M0 256v1536h256v-1536h768v1536h256v-1536h-154v-102h-102v-154h-768v154h-102v102h-154z" />
<glyph unicode="V" d="M0 1280v512h256v-563h205v-205h51v-410h102v-102h154v512h51v205h205v563h256v-512h-154v-102h-102v-410h-51v-205h-203v-563h-258v563h-205v205h-51v410h-102v102h-154z" />
<glyph unicode="W" horiz-adv-x="2048" d="M0 256v1536h256v-1536h512v1536h256v-1536h512v1536h256v-1536h-154v-102h-102v-154h-512v254h-154v-100h-102v-154h-512v154h-102v102h-154z" />
<glyph unicode="X" d="M0 0v256h51v205h205v307h256v-256h-154v-102h-102v-410h-256zM0 1536v256h256v-410h102v-102h154v-256h256v256h154v102h102v410h256v-256h-51v-205h-205v-309h-256v-254h256v-307h205v-205h51v-256h-256v410h-102v102h-154v256h-256v254h-256v309h-205v205h-51z" />
<glyph unicode="Y" d="M0 1536v256h256v-410h102v-102h154v-256h256v256h154v102h102v410h256v-256h-51v-205h-205v-309h-256v-1022h-256v1022h-256v309h-205v205h-51z" />
<glyph unicode="Z" d="M0 0v512h256v256h256v256h256v256h256v256h-1024v256h1280v-514h-256v-256h-256v-256h-256v-256h-256v-254h1024v-256h-1280z" />
<glyph unicode="[" horiz-adv-x="1024" d="M0 -256v2304h768v-256h-512v-1792h512v-256h-768z" />
<glyph unicode="\" d="M0 1792v256h256v-410h102v-102h154v-410h102v-102h154v-307h205v-205h51v-307h205v-205h51v-256h-256v410h-102v102h-154v410h-102v102h-154v307h-205v205h-51v307h-205v205h-51z" />
<glyph unicode="]" horiz-adv-x="1024" d="M0 0h512v1792h-512v256h768v-2304h-768v256z" />
<glyph unicode="^" horiz-adv-x="1024" d="M51 1331v205h103v102h102v154h256v-154h102v-102h103v-205h-205v205h-256v-205h-205z" />
<glyph unicode="_" horiz-adv-x="1024" d="M0 0v256h768v-256h-768z" />
<glyph unicode="`" horiz-adv-x="768" d="M0 2304v256h256v-154h102v-102h103v-205h-205v205h-256z" />
<glyph unicode="a" horiz-adv-x="1280" d="M0 256v768h154v102h102v154h768v-1280h-256v256h-154v-102h-102v-154h-256v154h-102v102h-154zM256 256h307v205h205v563h-512v-768z" />
<glyph unicode="b" horiz-adv-x="1280" d="M0 0v1792h256v-768h154v102h102v154h256v-154h102v-102h154v-768h-154v-102h-102v-154h-768zM256 256h512v768h-307v-205h-205v-563z" />
<glyph unicode="c" horiz-adv-x="1280" d="M0 256v768h154v102h102v154h512v-154h102v-102h154v-256h-256v256h-512v-768h512v256h256v-256h-154v-102h-102v-154h-512v154h-102v102h-154z" />
<glyph unicode="d" horiz-adv-x="1280" d="M0 256v768h154v102h102v154h512v512h256v-1792h-256v256h-154v-102h-102v-154h-256v154h-102v102h-154zM256 256h307v205h205v563h-512v-768z" />
<glyph unicode="e" horiz-adv-x="1280" d="M0 256v768h154v102h102v154h512v-154h102v-102h154v-512h-768v-256h614v-102h-102v-154h-512v154h-102v102h-154zM256 768h512v256h-512v-256z" />
<glyph unicode="f" horiz-adv-x="768" d="M0 0v1536h154v102h102v154h461v-205h-205v-51h-256v-256h256v-256h-256v-1024h-256z" />
<glyph unicode="g" horiz-adv-x="1280" d="M0 256v768h154v102h102v154h768v-1536h-154v-102h-102v-154h-512v154h-102v102h614v512h-154v-102h-102v-154h-256v154h-102v102h-154zM256 256h307v205h205v563h-512v-768z" />
<glyph unicode="h" horiz-adv-x="1280" d="M0 0v1792h256v-768h154v102h102v154h256v-154h102v-102h154v-1024h-256v1024h-307v-205h-205v-819h-256z" />
<glyph unicode="i" horiz-adv-x="512" d="M0 0v1280h256v-1280h-256zM0 1536v256h256v-256h-256z" />
<glyph unicode="j" horiz-adv-x="512" d="M-256 -256h256v1536h256v-1536h-154v-102h-102v-154h-256v256zM0 1536v256h256v-256h-256z" />
<glyph unicode="k" horiz-adv-x="1280" d="M0 0v1792h256v-1024h256v256h256v256h256v-258h-256v-256h-256v-254h256v-256h256v-256h-256v254h-256v256h-256v-510h-256z" />
<glyph unicode="l" horiz-adv-x="512" d="M0 0v1792h256v-1792h-256z" />
<glyph unicode="m" horiz-adv-x="2048" d="M0 0v1280h256v-256h154v102h102v154h256v-154h102v-102h308v102h102v154h256v-154h102v-102h154v-1024h-256v1024h-307v-205h-205v-819h-256v1024h-307v-205h-205v-819h-256z" />
<glyph unicode="n" horiz-adv-x="1280" d="M0 0v1280h256v-256h154v102h102v154h256v-154h102v-102h154v-1024h-256v1024h-307v-205h-205v-819h-256z" />
<glyph unicode="o" horiz-adv-x="1280" d="M0 256v768h154v102h102v154h512v-154h102v-102h154v-768h-154v-102h-102v-154h-512v154h-102v102h-154zM256 256h512v768h-512v-768z" />
<glyph unicode="p" horiz-adv-x="1280" d="M0 -512v1792h256v-256h154v102h102v154h256v-154h102v-102h154v-768h-154v-102h-102v-154h-512v-512h-256zM256 256h512v768h-307v-205h-205v-563z" />
<glyph unicode="q" horiz-adv-x="1280" d="M0 256v768h154v102h102v154h768v-1792h-256v768h-154v-102h-102v-154h-256v154h-102v102h-154zM256 256h307v205h205v563h-512v-768z" />
<glyph unicode="r" horiz-adv-x="1024" d="M0 0v1280h256v-256h154v102h102v154h256v-256h-307v-205h-205v-819h-256z" />
<glyph unicode="s" horiz-adv-x="1024" d="M0 0v256h512v256h-256v154h-102v102h-154v256h154v102h102v154h512v-256h-512v-256h256v-154h102v-102h154v-256h-154v-102h-102v-154h-512z" />
<glyph unicode="t" horiz-adv-x="1024" d="M0 1022v258h256v461h205v-205h51v-256h256v-258h-256v-1022h-256v1022h-256zM256 1024h256v254h-51v-203h-205v-51z" />
<glyph unicode="u" horiz-adv-x="1280" d="M0 256v1024h256v-1024h307v205h205v819h256v-1280h-256v256h-154v-102h-102v-154h-256v154h-102v102h-154z" />
<glyph unicode="v" horiz-adv-x="1280" d="M0 256v1024h256v-1024h512v1024h256v-1024h-154v-102h-102v-154h-512v154h-102v102h-154z" />
<glyph unicode="w" horiz-adv-x="2048" d="M0 256v1024h256v-1024h512v1024h256v-1024h512v1024h256v-1024h-154v-102h-102v-154h-512v254h-154v-100h-102v-154h-512v154h-102v102h-154z" />
<glyph unicode="x" horiz-adv-x="1280" d="M0 0v256h51v205h205v358h-205v205h-51v256h256v-410h102v-102h308v102h102v410h256v-256h-51v-205h-205v-358h205v-205h51v-256h-256v410h-102v102h-308v-102h-102v-410h-256z" />
<glyph unicode="y" horiz-adv-x="1280" d="M0 256v1024h256v-1024h305v205h207v819h256v-1536h-154v-102h-102v-154h-512v154h-102v102h614v512h-156v-102h-102v-154h-254v154h-102v102h-154z" />
<glyph unicode="z" horiz-adv-x="1024" d="M0 0v512h256v256h256v256h-512v256h768v-514h-256v-256h-256v-254h512v-256h-768z" />
<glyph unicode="{" horiz-adv-x="1024" d="M0 766v258h256v768h154v102h102v154h256v-256h-256v-770h-256v-254h256v-768h256v-256h-256v154h-102v102h-154v766h-256z" />
<glyph unicode="|" horiz-adv-x="512" d="M0 -256v2304h256v-2304h-256z" />
<glyph unicode="}" horiz-adv-x="1024" d="M0 0h256v768h256v254h-256v770h-256v256h256v-154h102v-102h154v-768h256v-258h-256v-766h-154v-102h-102v-154h-256v256z" />
<glyph unicode="~" horiz-adv-x="1280" d="M51 1331v205h103v102h102v154h256v-256h256v205h205v-205h-103v-102h-102v-154h-256v254h-256v-203h-205z" />
<glyph unicode="&#xa1;" horiz-adv-x="768" d="M256 0v1280h256v-1280h-256zM256 1536v256h256v-256h-256z" />
<glyph unicode="&#xa2;" d="M0 512v768h154v102h102v154h256v256h256v-256h256v-154h102v-102h154v-256h-256v254h-256v-766h256v256h256v-256h-154v-102h-102v-156h-256v-254h-256v254h-256v156h-102v102h-154zM256 512h256v766h-256v-766zM512 256h256v254h-51v-203h-205v-51zM512 1280h256v254 h-51v-203h-205v-51z" />
<glyph unicode="&#xa3;" d="M0 0v256h256v510h-256v258h256v512h154v102h102v154h512v-154h102v-102h154v-256h-256v256h-512v-512h461v-205h-205v-51l-256 -2v-510h768v-256h-1280zM256 768h256v254h-51v-203h-205v-51z" />
<glyph unicode="&#xa4;" d="M0 256v256h512v51h-205v205h-51v256h51v205h205v49h-512v258h256v-256h768v256h256v-258h-512v-49h205v-205h51v-256h-51v-205h-205v-51h512v-256h-256v254h-768v-254h-256zM512 768h256v256h-256v-256z" />
<glyph unicode="&#xa5;" d="M0 510v258h512v254h-256v309h-205v205h-51v256h256v-410h102v-102h154v-256h256v256h154v102h102v410h256v-256h-51v-205h-205v-309h-256v-254h512v-258h-512v-510h-256v510h-512zM512 512h256v254h-51v-203h-205v-51z" />
<glyph unicode="&#xa6;" horiz-adv-x="768" d="M256 -256v1024h256v-1024h-256zM256 1024v1024h256v-1024h-256z" />
<glyph unicode="&#xa7;" horiz-adv-x="1280" d="M0 0v256h256v-256h512v256h-256v254h-256v156h-102v102h-154v256h51v205h205v205h-102v102h-154v256h154v102h102v154h512v-154h102v-102h154v-256h-256v256h-512v-256h256v-256h256v-154h102v-102h154v-256h-51v-205h-205v-205h102v-102h154v-256h-154v-102h-102v-154 h-512v154h-102v102h-154zM256 768h256v-256h154v102h102v410h-256v254h-154v-100h-102v-410z" />
<glyph unicode="&#xa8;" horiz-adv-x="1024" d="M0 2048v256h256v-256h-256zM512 2048v256h256v-256h-256z" />
<glyph unicode="&#xa9;" horiz-adv-x="2304" d="M0 256v1280h154v102h102v154h154v102h102v154h1024v-154h102v-102h154v-154h102v-102h154v-1280h-154v-102h-102v-154h-154v-102h-102v-154h-1024v154h-102v102h-154v154h-102v102h-154zM256 256h256v-256h1024v254h-768v156h-102v102h-154v768h154v102h102v154h768v256 h-1024v-256h-256v-1280zM768 512h512v256h256v-256h-154v-102h-102v-154h512v1278h-512v-152h102v-102h154v-256h-256v256h-512v-768z" />
<glyph unicode="&#xaa;" horiz-adv-x="1024" d="M0 1280v256h154v102h102v154h512v-768h-512v51h-205v205h-51zM256 1280h256v256h-256v-256z" />
<glyph unicode="&#xab;" horiz-adv-x="1792" d="M0 766v258h256v256h256v256h256v-258h-256v-256h-256v-254h256v-256h256v-256h-256v254h-256v256h-256zM768 766v258h256v256h256v256h256v-258h-256v-256h-256v-254h256v-256h256v-256h-256v254h-256v256h-256z" />
<glyph unicode="&#xac;" horiz-adv-x="1024" d="M0 1024v256h768v-768h-256v512h-512z" />
<glyph unicode="&#xad;" horiz-adv-x="1024" d="M0 512v256h768v-256h-768z" />
<glyph unicode="&#xae;" horiz-adv-x="2304" d="M0 256v1280h154v102h102v154h154v102h102v154h1024v-154h102v-102h154v-154h102v-102h154v-1280h-154v-102h-102v-154h-154v-102h-102v-154h-1024v154h-102v102h-154v154h-102v102h-154zM256 256h256v1278h-256v-1278zM512 0h1024v254h-256v256h-256v258h-256v-514h-256 v-254zM512 1536h768v-154h102v-102h154v-256h-154v-102h-102v-410h256v-256h256v1280h-256v256h-1024v-256zM768 1024h512v256h-512v-256z" />
<glyph unicode="&#xaf;" horiz-adv-x="1024" d="M0 2048v256h768v-256h-768z" />
<glyph unicode="&#xb0;" horiz-adv-x="1024" d="M0 1280v256h154v102h102v154h256v-154h102v-102h154v-256h-154v-102h-102v-154h-256v154h-102v102h-154zM256 1280h256v256h-256v-256z" />
<glyph unicode="&#xb1;" d="M0 256v256h1280v-256h-1280zM0 1022v258h512v256h256v-256h512v-258h-512v-254h-256v254h-512zM512 1024h256v254h-51v-203h-205v-51z" />
<glyph unicode="&#xb2;" horiz-adv-x="1280" d="M0 1280v256h256v256h256v256h256v256h-512v-256h-256v256h154v102h102v154h512v-154h102v-102h154v-256h-154v-102h-102v-156h-256v-254h512v-256h-1024z" />
<glyph unicode="&#xb3;" horiz-adv-x="1280" d="M0 1536v256h256v-256h512v254h-256v156h-102v102h358v256h-512v-256h-256v256h154v102h102v154h512v-154h102v-102h154v-256h-154v-102h-102v-154h256v-256h-154v-102h-102v-154h-512v154h-102v102h-154z" />
<glyph unicode="&#xb4;" horiz-adv-x="768" d="M51 2099v205h103v102h102v154h256v-256h-256v-205h-205z" />
<glyph unicode="&#xb5;" horiz-adv-x="1280" d="M0 -512v1792h256v-1024h307v205h205v819h256v-1280h-256v256h-154v-102h-102v-154h-256v-512h-256z" />
<glyph unicode="&#xb6;" d="M0 1024v768h154v102h102v154h1024v-2304h-256v2048h-256v-2048h-256v1024h-256v154h-102v102h-154z" />
<glyph unicode="&#xb7;" horiz-adv-x="768" d="M256 768v256h256v-256h-256z" />
<glyph unicode="&#xb8;" horiz-adv-x="768" d="M51 -256h103v102h102v154h256v-256h-256v-205h-205v205z" />
<glyph unicode="&#xb9;" horiz-adv-x="768" d="M0 2304v256h512v-1280h-256v1024h-256z" />
<glyph unicode="&#xba;" horiz-adv-x="1024" d="M0 1280v256h154v102h102v154h256v-154h102v-102h154v-256h-154v-102h-102v-154h-256v154h-102v102h-154zM256 1280h256v256h-256v-256z" />
<glyph unicode="&#xbb;" horiz-adv-x="1792" d="M0 256v256h256v256h256v254h-256v256h-256v258h256v-256h256v-256h256v-258h-256v-256h-256v-254h-256zM768 256v256h256v256h256v254h-256v256h-256v258h256v-256h256v-256h256v-258h-256v-256h-256v-254h-256z" />
<glyph unicode="&#xbc;" horiz-adv-x="2560" d="M0 1794v256h512v-1280h-256v1024h-256zM256 0v256h256v256h256v256h256v256h256v256h256v256h256v256h256v-258h-256v-256h-256v-256h-256v-256h-256v-256h-256v-256h-256v-254h-256zM1280 2v512h256v256h256v256h256v-766h256v-258h-256v-254h-256v254h-512zM1536 260 h256v252h-256v-252zM1792 4h256v254h-51v-203h-205v-51z" />
<glyph unicode="&#xbd;" horiz-adv-x="2816" d="M0 1792v256h512v-1280h-256v1024h-256zM256 0h256v254h256v256h256v256h256v256h256v256h256v256h256v258h-256v-256h-256v-256h-256v-256h-256v-256h-256v-256h-256v-256h-256v-256zM1536 0v-256h1024v256h-512v254h256v156h102v102h154v256h-154v102h-102v154h-512 v-154h-102v-102h-154v-256h256v256h512v-256h-256v-256h-256v-256h-256z" />
<glyph unicode="&#xbe;" horiz-adv-x="2816" d="M0 1024v256h256v-256h512v254h-256v156h-102v102h358v256h-512v-256h-256v256h154v102h102v154h512v-154h102v-102h154v-256h-154v-102h-102v-154h256v-256h-154v-102h-102v-154h-512v154h-102v102h-154zM512 0v256h256v256h256v256h256v256h256v256h256v256h256v256h256 v-258h-256v-256h-256v-256h-256v-256h-256v-256h-256v-256h-256v-254h-256zM1536 0v512h256v256h256v256h256v-766h256v-258h-256v-254h-256v254h-512zM1792 258h256v252h-256v-252zM2048 2h256v254h-51v-203h-205v-51z" />
<glyph unicode="&#xbf;" d="M0 256v512h154v102h102v154h256v256h256v-256h-154v-102h-102v-154h-256v-512h768v256h256v-256h-154v-102h-102v-154h-768v154h-102v102h-154zM512 1536v256h256v-256h-256z" />
<glyph unicode="&#xc0;" d="M0 0v1536h154v102h102v154h768v-154h102v-102h154v-1536h-256v768h-768v-768h-256zM256 1024h768v512h-768v-512zM256 2304v256h256v-154h102v-102h103v-205h-205v205h-256z" />
<glyph unicode="&#xc1;" d="M0 0v1536h154v102h102v154h768v-154h102v-102h154v-1536h-256v768h-768v-768h-256zM256 1024h768v512h-768v-512zM563 2099v205h103v102h102v154h256v-256h-256v-205h-205z" />
<glyph unicode="&#xc2;" d="M0 0v1536h154v102h102v154h768v-154h102v-102h154v-1536h-256v768h-768v-768h-256zM256 1024h768v512h-768v-512zM307 2099v205h103v102h102v154h256v-154h102v-102h103v-205h-205v205h-256v-205h-205z" />
<glyph unicode="&#xc3;" d="M0 0v1536h154v102h102v154h768v-154h102v-102h154v-1536h-256v768h-768v-768h-256zM51 2099v205h103v102h102v154h256v-51h205v-205h307v205h205v-205h-103v-102h-102v-154h-256v51h-205v205h-307v-205h-205zM256 1024h768v512h-768v-512z" />
<glyph unicode="&#xc4;" d="M0 0v1536h154v102h102v154h768v-154h102v-102h154v-1536h-256v768h-768v-768h-256zM256 1024h768v512h-768v-512zM256 2048v256h256v-256h-256zM768 2048v256h256v-256h-256z" />
<glyph unicode="&#xc5;" d="M0 0v1536h154v102h102v154h768v-154h102v-102h154v-1536h-256v768h-768v-768h-256zM256 1024h768v512h-768v-512zM256 2304v256h154v102h102v154h256v-154h102v-102h154v-256h-154v-102h-102v-154h-256v154h-102v102h-154zM512 2304h256v256h-256v-256z" />
<glyph unicode="&#xc6;" horiz-adv-x="2560" d="M0 0v1536h154v102h102v154h2048v-256h-1024v-512h870v-102h-102v-156h-768v-510h1024v-256h-1280v766h-768v-766h-256zM256 1024h768v512h-768v-512zM1024 768h256v254h-51v-203h-205v-51z" />
<glyph unicode="&#xc7;" d="M0 256v1280h154v102h102v154h768v-154h102v-102h154v-256h-256v256h-768v-1280h768v256h256v-256h-154v-102h-102v-154h-256v-256h-256v-205h-205v205h103v102h102v154h-256v154h-102v102h-154z" />
<glyph unicode="&#xc8;" d="M0 0v1792h1280v-256h-1024v-512h870v-102h-102v-154h-768v-512h1024v-256h-1280zM256 2304v256h256v-154h102v-102h103v-205h-205v205h-256z" />
<glyph unicode="&#xc9;" d="M0 0v1792h1280v-256h-1024v-512h870v-102h-102v-154h-768v-512h1024v-256h-1280zM563 2099v205h103v102h102v154h256v-256h-256v-205h-205z" />
<glyph unicode="&#xca;" d="M0 0v1792h1280v-256h-1024v-512h870v-102h-102v-154h-768v-512h1024v-256h-1280zM307 2099v205h103v102h102v154h256v-154h102v-102h103v-205h-205v205h-256v-205h-205z" />
<glyph unicode="&#xcb;" d="M0 0v1792h1280v-256h-1024v-512h870v-102h-102v-154h-768v-512h1024v-256h-1280zM256 2048v256h256v-256h-256zM768 2048v256h256v-256h-256z" />
<glyph unicode="&#xcc;" horiz-adv-x="512" d="M-256 2304v256h256v-154h102v-102h103v-205h-205v205h-256zM0 0v1792h256v-1792h-256z" />
<glyph unicode="&#xcd;" horiz-adv-x="512" d="M0 0v1792h256v-1792h-256zM51 2099v205h103v102h102v154h256v-256h-256v-205h-205z" />
<glyph unicode="&#xce;" horiz-adv-x="512" d="M-205 2099v205h103v102h102v154h256v-154h102v-102h103v-205h-205v205h-256v-205h-205zM0 0v1792h256v-1792h-256z" />
<glyph unicode="&#xcf;" horiz-adv-x="512" d="M-256 2048v256h256v-256h-256zM0 0v1792h256v-1792h-256zM256 2048v256h256v-256h-256z" />
<glyph unicode="&#xd0;" horiz-adv-x="1792" d="M0 766v258h256v768h1024v-154h102v-102h154v-1280h-154v-102h-102v-154h-1024v766h-256zM256 768h256v254h-51v-203h-205v-51zM512 256h768v1280h-768v-512h461v-205h-205v-53h-256v-510z" />
<glyph unicode="&#xd1;" d="M0 0h256v1280h154v-102h102v-410h51v-205h205v-307h256v-256h256v1792h-256v-1280h-154v102h-102v410h-51v205h-205v307h-256v256h-256v-1792zM51 2099v205h103v102h102v154h256v-51h205v-205h307v205h205v-205h-103v-102h-102v-154h-256v51h-205v205h-307v-205h-205z " />
<glyph unicode="&#xd2;" d="M0 256v1280h154v102h102v154h768v-154h102v-102h154v-1280h-154v-102h-102v-154h-768v154h-102v102h-154zM256 256h768v1280h-768v-1280zM256 2304v256h256v-154h102v-102h103v-205h-205v205h-256z" />
<glyph unicode="&#xd3;" d="M0 256v1280h154v102h102v154h768v-154h102v-102h154v-1280h-154v-102h-102v-154h-768v154h-102v102h-154zM256 256h768v1280h-768v-1280zM563 2099v205h103v102h102v154h256v-256h-256v-205h-205z" />
<glyph unicode="&#xd4;" d="M0 256v1280h154v102h102v154h768v-154h102v-102h154v-1280h-154v-102h-102v-154h-768v154h-102v102h-154zM256 256h768v1280h-768v-1280zM307 2099v205h103v102h102v154h256v-154h102v-102h103v-205h-205v205h-256v-205h-205z" />
<glyph unicode="&#xd5;" d="M0 256v1280h154v102h102v154h768v-154h102v-102h154v-1280h-154v-102h-102v-154h-768v154h-102v102h-154zM51 2099v205h103v102h102v154h256v-51h205v-205h307v205h205v-205h-103v-102h-102v-154h-256v51h-205v205h-307v-205h-205zM256 256h768v1280h-768v-1280z" />
<glyph unicode="&#xd6;" d="M0 256v1280h154v102h102v154h768v-154h102v-102h154v-1280h-154v-102h-102v-154h-768v154h-102v102h-154zM256 256h768v1280h-768v-1280zM256 2048v256h256v-256h-256zM768 2048v256h256v-256h-256z" />
<glyph unicode="&#xd7;" d="M0 256v256h256v256h256v-258h-256v-254h-256zM0 1278v258h256v-256h256v-256h256v256h256v256h256v-258h-256v-256h-256v-254h256v-256h256v-256h-256v254h-256v258h-256v254h-256v256h-256z" />
<glyph unicode="&#xd8;" d="M0 0v256h154v102h100v308h-100v102h-154v768h154v102h102v154h512v-154h102v-102h154v256h256v-256h-154v-102h-100v-308h100v-102h154v-768h-154v-102h-102v-154h-512v154h-102v102h-154v-256h-256zM256 512h51v205h205v307h154v102h102v410h-512v-1024zM512 256h512 v1024h-51v-205h-205v-307h-154v-102h-102v-410z" />
<glyph unicode="&#xd9;" d="M0 256h154v-102h102v-154h768v154h102v102h154v1536h-256v-1536h-768v1536h-256v-1536zM256 2304v256h256v-154h102v-102h103v-205h-205v205h-256z" />
<glyph unicode="&#xda;" d="M0 256h154v-102h102v-154h768v154h102v102h154v1536h-256v-1536h-768v1536h-256v-1536zM563 2099v205h103v102h102v154h256v-256h-256v-205h-205z" />
<glyph unicode="&#xdb;" d="M0 256h154v-102h102v-154h768v154h102v102h154v1536h-256v-1536h-768v1536h-256v-1536zM307 2099v205h103v102h102v154h256v-154h102v-102h103v-205h-205v205h-256v-205h-205z" />
<glyph unicode="&#xdc;" d="M0 256h154v-102h102v-154h768v154h102v102h154v1536h-256v-1536h-768v1536h-256v-1536zM256 2048v256h256v-256h-256zM768 2048v256h256v-256h-256z" />
<glyph unicode="&#xdd;" d="M0 1536h51v-205h205v-309h256v-1022h256v1022h256v309h205v205h51v256h-256v-410h-102v-102h-154v-256h-256v256h-154v102h-102v410h-256v-256zM563 2099v205h103v102h102v154h256v-256h-256v-205h-205z" />
<glyph unicode="&#xde;" d="M0 -256v2304h256v-768h154v102h102v154h512v-154h102v-102h154v-768h-154v-102h-102v-154h-512v154h-102v102h-154v-768h-256zM256 717h205v-205h563v768h-563v-205h-205v-358z" />
<glyph unicode="&#xdf;" d="M0 0v1536h154v102h102v154h512v-154h102v-102h154v-512h-154v-102h-102v-154h256v-154h102v-102h154v-256h-154v-102h-102v-154h-512v154h-102v102h614v256h-256v254h-256v156h-102v102h358v512h-512v-1536h-256z" />
<glyph unicode="&#xe0;" horiz-adv-x="1280" d="M0 256v768h154v102h102v154h768v-1280h-256v256h-154v-102h-102v-154h-256v154h-102v102h-154zM256 256h307v205h205v563h-512v-768zM256 1792v256h256v-154h102v-102h103v-205h-205v205h-256z" />
<glyph unicode="&#xe1;" horiz-adv-x="1280" d="M0 256h154v-102h102v-154h256v154h102v102h154v-256h256v1280h-768v-154h-102v-102h-154v-768zM256 256v768h512v-563h-205v-205h-307zM307 1587v205h103v102h102v154h256v-256h-256v-205h-205z" />
<glyph unicode="&#xe2;" horiz-adv-x="1280" d="M0 256h154v-102h102v-154h256v154h102v102h154v-256h256v1280h-768v-154h-102v-102h-154v-768zM51 1587v205h103v102h102v154h512v-154h102v-102h103v-205h-205v205h-512v-205h-205zM256 256v768h512v-563h-205v-205h-307z" />
<glyph unicode="&#xe3;" horiz-adv-x="1280" d="M0 256h154v-102h102v-154h256v154h102v102h154v-256h256v1280h-768v-154h-102v-102h-154v-768zM51 1587v205h103v102h102v154h256v-256h256v205h205v-205h-103v-102h-102v-154h-256v254h-256v-203h-205zM256 256v768h512v-563h-205v-205h-307z" />
<glyph unicode="&#xe4;" horiz-adv-x="1280" d="M0 256h154v-102h102v-154h256v154h102v102h154v-256h256v1280h-768v-154h-102v-102h-154v-768zM0 1536v256h256v-256h-256zM256 256v768h512v-563h-205v-205h-307zM768 1536v256h256v-256h-256z" />
<glyph unicode="&#xe5;" horiz-adv-x="1280" d="M0 256h154v-102h102v-154h256v154h102v102h154v-256h256v1280h-768v-154h-102v-102h-154v-768zM0 1792v256h154v102h102v154h512v-154h102v-102h154v-256h-154v-102h-102v-154h-512v154h-102v102h-154zM256 256v768h512v-563h-205v-205h-307zM256 1792h512v256h-512v-256 z" />
<glyph unicode="&#xe6;" horiz-adv-x="2048" d="M0 256v768h154v102h102v154h512v-256h154v102h102v154h512v-154h102v-102h154v-512h-768v-256h614v-102h-102v-154h-512v154h-102v102h-308v-102h-102v-154h-256v154h-102v102h-154zM256 256h307v205h205v561h-512v-766zM1024 768h512v256h-512v-256z" />
<glyph unicode="&#xe7;" horiz-adv-x="1280" d="M0 256v768h154v102h102v154h512v-154h102v-102h154v-256h-256v256h-512v-768h512v256h256v-256h-154v-102h-102v-410h-256v-205h-205v205h103v102h102v154h-256v154h-102v102h-154z" />
<glyph unicode="&#xe8;" horiz-adv-x="1280" d="M0 256h154v-102h102v-154h512v154h102v102h-614v256h768v512h-154v102h-102v154h-512v-154h-102v-102h-154v-768zM256 768v256h512v-256h-512zM256 1792v256h256v-154h102v-102h103v-205h-205v205h-256z" />
<glyph unicode="&#xe9;" horiz-adv-x="1280" d="M0 256h154v-102h102v-154h512v154h102v102h-614v256h768v512h-154v102h-102v154h-512v-154h-102v-102h-154v-768zM256 768v256h512v-256h-512zM307 1587v205h103v102h102v154h256v-256h-256v-205h-205z" />
<glyph unicode="&#xea;" horiz-adv-x="1280" d="M0 256h154v-102h102v-154h512v154h102v102h-614v256h768v512h-154v102h-102v154h-512v-154h-102v-102h-154v-768zM51 1587v205h103v102h102v154h512v-154h102v-102h103v-205h-205v205h-512v-205h-205zM256 768v256h512v-256h-512z" />
<glyph unicode="&#xeb;" horiz-adv-x="1280" d="M0 256h154v-102h102v-154h512v154h102v102h-614v256h768v512h-154v102h-102v154h-512v-154h-102v-102h-154v-768zM0 1536v256h256v-256h-256zM256 768v256h512v-256h-512zM768 1536v256h256v-256h-256z" />
<glyph unicode="&#xec;" horiz-adv-x="512" d="M-256 1792v256h256v-154h102v-102h103v-205h-205v205h-256zM0 0v1280h256v-1280h-256z" />
<glyph unicode="&#xed;" horiz-adv-x="512" d="M0 0v1280h256v-1280h-256zM51 1587v205h103v102h102v154h256v-256h-256v-205h-205z" />
<glyph unicode="&#xee;" horiz-adv-x="512" d="M-205 1587v205h103v102h102v154h256v-154h102v-102h103v-205h-205v205h-256v-205h-205zM0 0v1280h256v-1280h-256z" />
<glyph unicode="&#xef;" horiz-adv-x="512" d="M-256 1536v256h256v-256h-256zM0 0v1280h256v-1280h-256zM256 1536v256h256v-256h-256z" />
<glyph unicode="&#xf0;" horiz-adv-x="1280" d="M0 256v768h154v102h102v154h512v51h-205v205h-51v254h-256v-254h-256v256h256v254h-256v258h256v-256h256v256h256v-258h-256v-254h256v-410h102v-102h154v-1024h-154v-102h-102v-154h-512v154h-102v102h-154zM256 256h512v768h-512v-768z" />
<glyph unicode="&#xf1;" horiz-adv-x="1280" d="M0 0h256v819h205v205h307v-1024h256v1024h-154v102h-102v154h-256v-154h-102v-102h-154v256h-256v-1280zM51 1587v205h103v102h102v154h256v-256h256v205h205v-205h-103v-102h-102v-154h-256v254h-256v-203h-205z" />
<glyph unicode="&#xf2;" horiz-adv-x="1280" d="M0 256v768h154v102h102v154h512v-154h102v-102h154v-768h-154v-102h-102v-154h-512v154h-102v102h-154zM256 256h512v768h-512v-768zM256 1792v256h256v-154h102v-102h103v-205h-205v205h-256z" />
<glyph unicode="&#xf3;" horiz-adv-x="1280" d="M0 256v768h154v102h102v154h512v-154h102v-102h154v-768h-154v-102h-102v-154h-512v154h-102v102h-154zM256 256h512v768h-512v-768zM307 1587v205h103v102h102v154h256v-256h-256v-205h-205z" />
<glyph unicode="&#xf4;" horiz-adv-x="1280" d="M0 256v768h154v102h102v154h512v-154h102v-102h154v-768h-154v-102h-102v-154h-512v154h-102v102h-154zM51 1587v205h103v102h102v154h512v-154h102v-102h103v-205h-205v205h-512v-205h-205zM256 256h512v768h-512v-768z" />
<glyph unicode="&#xf5;" horiz-adv-x="1280" d="M0 256v768h154v102h102v154h512v-154h102v-102h154v-768h-154v-102h-102v-154h-512v154h-102v102h-154zM51 1587v205h103v102h102v154h256v-256h256v205h205v-205h-103v-102h-102v-154h-256v254h-256v-203h-205zM256 256h512v768h-512v-768z" />
<glyph unicode="&#xf6;" horiz-adv-x="1280" d="M0 256v768h154v102h102v154h512v-154h102v-102h154v-768h-154v-102h-102v-154h-512v154h-102v102h-154zM0 1536v256h256v-256h-256zM256 256h512v768h-512v-768zM768 1536v256h256v-256h-256z" />
<glyph unicode="&#xf7;" d="M0 768v256h1280v-256h-1280zM512 256v256h256v-256h-256zM512 1280v256h256v-256h-256z" />
<glyph unicode="&#xf8;" d="M0 0v256h256v154h-102v102h-154v512h154v102h102v154h512v-154h102v-102h154v256h256v-258h-256v-152h102v-102h154v-512h-154v-102h-102v-154h-512v154h-102v100h-154v-254h-256zM256 512h256v256h256v256h-512v-512zM512 256h512v510h-256v-256h-256v-254z" />
<glyph unicode="&#xf9;" horiz-adv-x="1280" d="M0 256h154v-102h102v-154h256v154h102v102h154v-256h256v1280h-256v-819h-205v-205h-307v1024h-256v-1024zM256 1792v256h256v-154h102v-102h103v-205h-205v205h-256z" />
<glyph unicode="&#xfa;" horiz-adv-x="1280" d="M0 256h154v-102h102v-154h256v154h102v102h154v-256h256v1280h-256v-819h-205v-205h-307v1024h-256v-1024zM307 1587v205h103v102h102v154h256v-256h-256v-205h-205z" />
<glyph unicode="&#xfb;" horiz-adv-x="1280" d="M0 256h154v-102h102v-154h256v154h102v102h154v-256h256v1280h-256v-819h-205v-205h-307v1024h-256v-1024zM51 1587v205h103v102h102v154h512v-154h102v-102h103v-205h-205v205h-512v-205h-205z" />
<glyph unicode="&#xfc;" horiz-adv-x="1280" d="M0 256h154v-102h102v-154h256v154h102v102h154v-256h256v1280h-256v-819h-205v-205h-307v1024h-256v-1024zM0 1536v256h256v-256h-256zM768 1536v256h256v-256h-256z" />
<glyph unicode="&#xfd;" horiz-adv-x="1280" d="M0 256h154v-102h102v-154h254v154h102v102h156v-512h-614v-102h102v-154h512v154h102v102h154v1536h-256v-819h-207v-205h-305v1024h-256v-1024zM307 1587v205h103v102h102v154h256v-256h-256v-205h-205z" />
<glyph unicode="&#xfe;" horiz-adv-x="1280" d="M0 -256v1792h256v-512h154v102h102v154h256v-154h102v-102h154v-768h-154v-102h-102v-154h-256v154h-102v102h-154v-512h-256zM256 461h205v-205h307v768h-307v-205h-205v-358z" />
<glyph unicode="&#xff;" horiz-adv-x="1280" d="M0 256h154v-102h102v-154h254v154h102v102h156v-512h-614v-102h102v-154h512v154h102v102h154v1536h-256v-819h-207v-205h-305v1024h-256v-1024zM0 1536v256h256v-256h-256zM768 1536v256h256v-256h-256z" />
<glyph unicode="&#x152;" horiz-adv-x="2560" d="M0 256v1280h154v102h102v154h2048v-256h-1024v-512h870v-102h-102v-154h-768v-512h1024v-256h-2048v154h-102v102h-154zM256 256h768v1280h-768v-1280z" />
<glyph unicode="&#x153;" horiz-adv-x="2048" d="M0 256v768h154v102h102v154h512v-154h102v-102h154v256h512v-154h102v-102h154v-512h-768v-256h614v-102h-102v-154h-512v254h-154v-100h-102v-154h-512v154h-102v102h-154zM256 256h512v768h-512v-768zM1024 768h512v254h-512v-254z" />
<glyph unicode="&#x178;" d="M0 1536h51v-205h205v-309h256v-1022h256v1022h256v309h205v205h51v256h-256v-410h-102v-102h-154v-256h-256v256h-154v102h-102v410h-256v-256zM256 2048v256h256v-256h-256zM768 2048v256h256v-256h-256z" />
<glyph unicode="&#x2c6;" horiz-adv-x="1024" d="M51 2099v205h103v102h102v154h256v-154h102v-102h103v-205h-205v205h-256v-205h-205z" />
<glyph unicode="&#x2dc;" horiz-adv-x="1280" d="M51 2099v205h103v102h102v154h256v-256h256v205h205v-205h-103v-102h-102v-154h-256v254h-256v-203h-205z" />
<glyph unicode="&#x2000;" horiz-adv-x="1408" />
<glyph unicode="&#x2001;" horiz-adv-x="2816" />
<glyph unicode="&#x2002;" horiz-adv-x="1408" />
<glyph unicode="&#x2003;" horiz-adv-x="2816" />
<glyph unicode="&#x2004;" horiz-adv-x="938" />
<glyph unicode="&#x2005;" horiz-adv-x="704" />
<glyph unicode="&#x2006;" horiz-adv-x="469" />
<glyph unicode="&#x2007;" horiz-adv-x="469" />
<glyph unicode="&#x2008;" horiz-adv-x="352" />
<glyph unicode="&#x2009;" horiz-adv-x="563" />
<glyph unicode="&#x200a;" horiz-adv-x="156" />
<glyph unicode="&#x2010;" horiz-adv-x="1024" d="M0 512v256h768v-256h-768z" />
<glyph unicode="&#x2011;" horiz-adv-x="1024" d="M0 512v256h768v-256h-768z" />
<glyph unicode="&#x2012;" horiz-adv-x="1024" d="M0 512v256h768v-256h-768z" />
<glyph unicode="&#x2013;" d="M0 768v256h1280v-256h-1280z" />
<glyph unicode="&#x2014;" horiz-adv-x="2048" d="M0 768v256h1792v-256h-1792z" />
<glyph unicode="&#x2018;" horiz-adv-x="768" d="M0 1024v512h154v102h102v103h205v-205h-205v-512h-256z" />
<glyph unicode="&#x2019;" horiz-adv-x="768" d="M51 1075v205h205v512h256v-512h-154v-102h-102v-103h-205z" />
<glyph unicode="&#x201a;" horiz-adv-x="768" d="M51 -256h205v512h256v-512h-154v-102h-102v-103h-205v205z" />
<glyph unicode="&#x201c;" horiz-adv-x="1280" d="M0 1024v512h154v102h102v103h205v-205h205v102h102v103h205v-205h-205v-512h-256v510h-256v-510h-256z" />
<glyph unicode="&#x201d;" horiz-adv-x="1280" d="M51 1075v205h205v512h256v-512h256v512h256v-512h-154v-102h-102v-103h-205v203h-205v-100h-102v-103h-205z" />
<glyph unicode="&#x201e;" horiz-adv-x="1280" d="M51 -256h205v512h256v-512h256v512h256v-512h-154v-102h-102v-103h-205v203h-205v-100h-102v-103h-205v205z" />
<glyph unicode="&#x2022;" d="M0 512v768h256v256h768v-256h256v-768h-256v-256h-768v256h-256z" />
<glyph unicode="&#x2026;" horiz-adv-x="1792" d="M256 0v256h256v-256h-256zM768 0v256h256v-256h-256zM1280 0v256h256v-256h-256z" />
<glyph unicode="&#x202f;" horiz-adv-x="563" />
<glyph unicode="&#x2039;" horiz-adv-x="1024" d="M0 766v258h256v256h256v256h256v-258h-256v-256h-256v-254h256v-256h256v-256h-256v254h-256v256h-256z" />
<glyph unicode="&#x203a;" horiz-adv-x="1024" d="M0 256v256h256v256h256v254h-256v256h-256v258h256v-256h256v-256h256v-258h-256v-256h-256v-254h-256z" />
<glyph unicode="&#x205f;" horiz-adv-x="704" />
<glyph unicode="&#x20ac;" horiz-adv-x="1792" d="M0 510v258h256v254h-256v258h256v256h154v102h102v154h768v-154h102v-102h154v-256h-256v256h-768v-256h461v-205h-205v-53h-256v-254h461v-205h-205v-53h-256v-254h768v256h256v-256h-154v-102h-102v-154h-768v154h-102v102h-154v254h-256zM256 512h256v254h-51v-203 h-205v-51zM256 1024h256v254h-51v-203h-205v-51z" />
<glyph unicode="&#x2122;" horiz-adv-x="1792" d="M51 1587v205h973v-154h102v-102h154v256h256v-768h-256v307h-205v205h-51v-512h-256v766h-51v-203h-205v-563h-256v563h-205z" />
<glyph unicode="&#x25fc;" horiz-adv-x="1280" d="M0 0v1280h1280v-1280h-1280z" />
<glyph unicode="&#xfb01;" horiz-adv-x="1280" d="M0 0v1536h154v102h102v154h256v-256h-256v-256h768v-1280h-256v1024h-512v-1024h-256zM768 1536v256h256v-256h-256z" />
<glyph unicode="&#xfb02;" horiz-adv-x="1280" d="M0 0v1536h154v102h102v154h768v-1792h-256v1536h-512v-256h256v-256h-256v-1024h-256z" />
</font>
</defs>
</svg>
